<?xml version="1.0" encoding="UTF-8"?>
<!DOCTYPE svg PUBLIC "-//W3C//DTD SVG 1.1//EN" "http://www.w3.org/Graphics/SVG/1.1/DTD/svg11.dtd">
<svg xmlns="http://www.w3.org/2000/svg" version="1.1" width="200px" height="200px" style="shape-rendering:geometricPrecision; text-rendering:geometricPrecision; image-rendering:optimizeQuality; fill-rule:evenodd; clip-rule:evenodd" xmlns:xlink="http://www.w3.org/1999/xlink">
<g><path style="opacity:1" fill="#22b697" d="M -0.5,-0.5 C 25.1667,-0.5 50.8333,-0.5 76.5,-0.5C 76.0472,0.458367 75.3805,1.2917 74.5,2C 55.4238,5.51522 36.4238,9.34856 17.5,13.5C 16.5003,37.8242 16.1669,62.1575 16.5,86.5C 15.8333,83.5 15.1667,80.5 14.5,77.5C 14.7429,63.582 14.2429,50.582 13,38.5C 12.8184,41.2263 12.3184,43.8929 11.5,46.5C 10.5224,46.0233 9.68909,45.3567 9,44.5C 7.76366,46.3072 7.43033,48.3072 8,50.5C 5.28086,49.5562 2.44753,49.2229 -0.5,49.5C -0.5,32.8333 -0.5,16.1667 -0.5,-0.5 Z"/></g>
<g><path style="opacity:1" fill="#23ba99" d="M 122.5,-0.5 C 147.833,-0.5 173.167,-0.5 198.5,-0.5C 198.5,14.8333 198.5,30.1667 198.5,45.5C 197.523,42.7131 197.19,39.7131 197.5,36.5C 195.533,36.7394 193.699,36.4061 192,35.5C 191.012,38.4245 190.346,41.4245 190,44.5C 189.667,40.8333 189.333,37.1667 189,33.5C 187.883,34.9494 187.216,36.6161 187,38.5C 186.781,37.062 186.281,35.7287 185.5,34.5C 184.501,47.8167 184.167,61.15 184.5,74.5C 184.666,78.5138 184.499,82.5138 184,86.5C 182.706,87.8544 182.54,89.1877 183.5,90.5C 183.043,91.2975 182.376,91.6309 181.5,91.5C 182.797,65.517 182.797,39.517 181.5,13.5C 162.576,9.34856 143.576,5.51522 124.5,2C 123.244,1.58309 122.577,0.749754 122.5,-0.5 Z"/></g>
<g><path style="opacity:0.999" fill="#1fb296" d="M 176.5,39.5 C 175.724,50.6822 174.89,62.0155 174,73.5C 173.333,77.5 172.667,77.5 172,73.5C 171.667,75.5 171.333,77.5 171,79.5C 170.007,75.5577 169.34,71.5577 169,67.5C 168,70.1667 167,72.8333 166,75.5C 165.667,74.1667 165.333,72.8333 165,71.5C 164.667,71.8333 164.333,72.1667 164,72.5C 163.667,70.1667 163.333,67.8333 163,65.5C 162.828,72.346 162.328,79.0126 161.5,85.5C 161.825,68.2563 161.492,51.0896 160.5,34C 140.235,29.7339 119.902,25.9005 99.5,22.5C 78.9048,25.7625 58.5715,29.7625 38.5,34.5C 37.6762,38.3123 37.1762,42.3123 37,46.5C 36.3333,43.8333 35.6667,43.8333 35,46.5C 34.6667,44.5 34.3333,42.5 34,40.5C 33.6667,43.8333 33.3333,47.1667 33,50.5C 32.6116,46.7808 31.9449,43.1141 31,39.5C 30.6667,42.5 30.3333,45.5 30,48.5C 29.6667,48.1667 29.3333,47.8333 29,47.5C 26.914,52.2025 25.914,57.2025 26,62.5C 25.4223,52.2482 24.2557,42.2482 22.5,32.5C 21.6276,27.5534 22.9609,23.3868 26.5,20C 50.8864,14.3227 75.3864,9.156 100,4.5C 123.534,9.17231 147.034,14.0056 170.5,19C 173,20.1667 174.833,22 176,24.5C 176.499,29.4889 176.666,34.4889 176.5,39.5 Z"/></g>
<g><path style="opacity:1" fill="#18ad99" d="M 198.5,45.5 C 198.5,54.1667 198.5,62.8333 198.5,71.5C 197.034,72.347 196.2,73.6803 196,75.5C 193.602,75.0418 191.936,73.7085 191,71.5C 190.08,74.1013 189.413,76.7679 189,79.5C 188.667,74.1667 188.333,68.8333 188,63.5C 187.667,66.1667 187.333,68.8333 187,71.5C 186.764,73.1193 185.931,74.1193 184.5,74.5C 184.167,61.15 184.501,47.8167 185.5,34.5C 186.281,35.7287 186.781,37.062 187,38.5C 187.216,36.6161 187.883,34.9494 189,33.5C 189.333,37.1667 189.667,40.8333 190,44.5C 190.346,41.4245 191.012,38.4245 192,35.5C 193.699,36.4061 195.533,36.7394 197.5,36.5C 197.19,39.7131 197.523,42.7131 198.5,45.5 Z"/></g>
<g><path style="opacity:0.999" fill="#1ab292" d="M 133.5,87.5 C 133.64,85.8762 132.973,84.7096 131.5,84C 134.817,82.9148 135.151,81.4148 132.5,79.5C 131.707,79.9312 130.873,80.2645 130,80.5C 128.454,78.7591 126.454,77.7591 124,77.5C 121.966,77.3536 120.299,78.0203 119,79.5C 117.333,78.8333 115.667,78.1667 114,77.5C 112.929,80.1125 112.095,80.1125 111.5,77.5C 115.179,69.6466 119.512,62.1466 124.5,55C 133.186,54.1681 141.853,54.3348 150.5,55.5C 150.709,56.086 151.043,56.586 151.5,57C 145.6,67.3122 139.6,77.4789 133.5,87.5 Z"/></g>
<g><path style="opacity:0.999" fill="#1aab9d" d="M 14.5,77.5 C 14.5646,85.5435 14.5646,93.3768 14.5,101C 11.8333,101.667 9.16667,101.667 6.5,101C 7.42317,98.9521 6.92317,97.1188 5,95.5C 4.78369,97.3839 4.11702,99.0506 3,100.5C 2.66667,98.1667 2.33333,95.8333 2,93.5C 1.66667,93.8333 1.33333,94.1667 1,94.5C 0.801916,92.6183 0.301916,90.9516 -0.5,89.5C -0.5,76.1667 -0.5,62.8333 -0.5,49.5C 2.44753,49.2229 5.28086,49.5562 8,50.5C 7.43033,48.3072 7.76366,46.3072 9,44.5C 9.68909,45.3567 10.5224,46.0233 11.5,46.5C 12.3184,43.8929 12.8184,41.2263 13,38.5C 14.2429,50.582 14.7429,63.582 14.5,77.5 Z"/></g>
<g><path style="opacity:0.996" fill="#3bb3a5" d="M 22.5,32.5 C 24.2557,42.2482 25.4223,52.2482 26,62.5C 25.914,57.2025 26.914,52.2025 29,47.5C 29.3333,47.8333 29.6667,48.1667 30,48.5C 30.3333,45.5 30.6667,42.5 31,39.5C 31.9449,43.1141 32.6116,46.7808 33,50.5C 33.3333,47.1667 33.6667,43.8333 34,40.5C 34.3333,42.5 34.6667,44.5 35,46.5C 35.6667,43.8333 36.3333,43.8333 37,46.5C 37.1762,42.3123 37.6762,38.3123 38.5,34.5C 38.5,54.5 38.5,74.5 38.5,94.5C 37.3121,95.6843 36.1455,95.6843 35,94.5C 34.5811,98.8518 33.9145,99.1851 33,95.5C 30.9957,98.4746 29.9957,101.808 30,105.5C 29.2189,104.271 28.7189,102.938 28.5,101.5C 29.3311,99.5269 29.4978,97.5269 29,95.5C 28.6667,96.5 28.3333,97.5 28,98.5C 27.2079,96.3563 25.7079,95.023 23.5,94.5C 22.5122,73.909 22.1789,53.2423 22.5,32.5 Z"/></g>
<g><path style="opacity:0.999" fill="#1aab9d" d="M 111.5,77.5 C 112.095,80.1125 112.929,80.1125 114,77.5C 115.667,78.1667 117.333,78.8333 119,79.5C 120.299,78.0203 121.966,77.3536 124,77.5C 126.454,77.7591 128.454,78.7591 130,80.5C 130.873,80.2645 131.707,79.9312 132.5,79.5C 135.151,81.4148 134.817,82.9148 131.5,84C 132.973,84.7096 133.64,85.8762 133.5,87.5C 133.047,89.5652 132.047,91.2318 130.5,92.5C 129.89,90.1497 129.556,90.483 129.5,93.5C 127.799,93.9662 126.299,93.9662 125,93.5C 124.333,96.1667 123.667,96.1667 123,93.5C 120.887,95.2711 121.053,96.7711 123.5,98C 123,98.1667 122.5,98.3333 122,98.5C 120.829,97.6604 119.662,96.8271 118.5,96C 114.144,96.219 110.644,94.719 108,91.5C 108.409,93.2251 108.242,94.8918 107.5,96.5C 106.668,93.7647 105.668,91.7647 104.5,90.5C 106.074,85.6805 108.407,81.3472 111.5,77.5 Z"/></g>
<g><path style="opacity:0.999" fill="#25afa7" d="M 198.5,71.5 C 198.667,84.1711 198.5,96.8377 198,109.5C 197.142,114.265 195.976,118.931 194.5,123.5C 192.324,122.287 191.991,120.62 193.5,118.5C 192.224,116.15 190.391,114.484 188,113.5C 186.27,114.649 184.604,114.649 183,113.5C 181.902,116.936 180.235,119.603 178,121.5C 177.329,120.748 176.496,120.414 175.5,120.5C 178.892,111.158 180.892,101.492 181.5,91.5C 182.376,91.6309 183.043,91.2975 183.5,90.5C 182.54,89.1877 182.706,87.8544 184,86.5C 184.499,82.5138 184.666,78.5138 184.5,74.5C 185.931,74.1193 186.764,73.1193 187,71.5C 187.333,68.8333 187.667,66.1667 188,63.5C 188.333,68.8333 188.667,74.1667 189,79.5C 189.413,76.7679 190.08,74.1013 191,71.5C 191.936,73.7085 193.602,75.0418 196,75.5C 196.2,73.6803 197.034,72.347 198.5,71.5 Z"/></g>
<g><path style="opacity:0.998" fill="#27afaa" d="M 14.5,77.5 C 15.1667,80.5 15.8333,83.5 16.5,86.5C 17.9369,102.252 21.6036,117.586 27.5,132.5C 24.1592,132.438 21.4925,131.771 19.5,130.5C 16.1307,129.803 14.2973,131.136 14,134.5C 13.3333,133.833 12.6667,133.167 12,132.5C 13.7131,136.152 14.8798,140.152 15.5,144.5C 15.2528,145.713 14.5862,146.38 13.5,146.5C 7.28722,132.968 2.62055,118.968 -0.5,104.5C -0.5,99.5 -0.5,94.5 -0.5,89.5C 0.301916,90.9516 0.801916,92.6183 1,94.5C 1.33333,94.1667 1.66667,93.8333 2,93.5C 2.33333,95.8333 2.66667,98.1667 3,100.5C 4.11702,99.0506 4.78369,97.3839 5,95.5C 6.92317,97.1188 7.42317,98.9521 6.5,101C 9.16667,101.667 11.8333,101.667 14.5,101C 14.5646,93.3768 14.5646,85.5435 14.5,77.5 Z"/></g>
<g><path style="opacity:1" fill="#1bb098" d="M 93.5,107.5 C 93.6567,108.873 93.49,110.207 93,111.5C 91.0288,113.926 89.5288,116.593 88.5,119.5C 85.2391,119.9 84.5724,118.733 86.5,116C 86.5607,114.289 85.8941,112.956 84.5,112C 79.0012,111.334 73.6679,111.501 68.5,112.5C 64.928,106.709 61.428,100.709 58,94.5C 57.2797,92.8876 57.4464,91.3876 58.5,90C 66.8333,89.3333 75.1667,89.3333 83.5,90C 87.1174,95.7022 90.4507,101.536 93.5,107.5 Z"/></g>
<g><path style="opacity:0.994" fill="#1da6a8" d="M 104.5,90.5 C 105.668,91.7647 106.668,93.7647 107.5,96.5C 108.242,94.8918 108.409,93.2251 108,91.5C 110.644,94.719 114.144,96.219 118.5,96C 119.662,96.8271 120.829,97.6604 122,98.5C 122.5,98.3333 123,98.1667 123.5,98C 121.053,96.7711 120.887,95.2711 123,93.5C 123.667,96.1667 124.333,96.1667 125,93.5C 126.299,93.9662 127.799,93.9662 129.5,93.5C 129.556,90.483 129.89,90.1497 130.5,92.5C 126.002,101.501 121.002,110.168 115.5,118.5C 115.66,116.801 115.494,115.134 115,113.5C 108.915,114.312 102.748,114.812 96.5,115C 95.324,116.914 94.324,116.748 93.5,114.5C 92.4782,116.855 90.8116,118.522 88.5,119.5C 89.5288,116.593 91.0288,113.926 93,111.5C 93.49,110.207 93.6567,108.873 93.5,107.5C 97.3479,101.968 101.015,96.3013 104.5,90.5 Z"/></g>
<g><path style="opacity:0.992" fill="#22a6b3" d="M 88.5,119.5 C 90.8116,118.522 92.4782,116.855 93.5,114.5C 94.324,116.748 95.324,116.914 96.5,115C 102.748,114.812 108.915,114.312 115,113.5C 115.494,115.134 115.66,116.801 115.5,118.5C 113.538,123.757 111.038,128.757 108,133.5C 107.25,134.126 106.416,134.626 105.5,135C 97.5,135.667 89.5,135.667 81.5,135C 80,134.167 78.8333,133 78,131.5C 74.2951,125.423 71.1284,119.09 68.5,112.5C 73.6679,111.501 79.0012,111.334 84.5,112C 85.8941,112.956 86.5607,114.289 86.5,116C 84.5724,118.733 85.2391,119.9 88.5,119.5 Z"/></g>
<g><path style="opacity:0.995" fill="#20a7ab" d="M 194.5,123.5 C 190.568,136.629 184.901,148.962 177.5,160.5C 175.089,160.137 173.589,161.137 173,163.5C 172.667,162.833 172.333,162.167 172,161.5C 170.143,165.38 168.81,165.046 168,160.5C 165.513,165.327 162.513,165.661 159,161.5C 158.666,163.847 158.833,166.181 159.5,168.5C 157.208,168.756 155.041,168.423 153,167.5C 152.333,168.167 151.667,168.833 151,169.5C 151.109,168.231 150.942,167.231 150.5,166.5C 157.078,158.346 162.912,149.68 168,140.5C 170.805,133.915 173.305,127.248 175.5,120.5C 176.496,120.414 177.329,120.748 178,121.5C 180.235,119.603 181.902,116.936 183,113.5C 184.604,114.649 186.27,114.649 188,113.5C 190.391,114.484 192.224,116.15 193.5,118.5C 191.991,120.62 192.324,122.287 194.5,123.5 Z"/></g>
<g><path style="opacity:0.79" fill="#21a8a4" d="M 176.5,39.5 C 176.901,60.1994 176.401,80.8661 175,101.5C 172.433,118.722 166.266,134.389 156.5,148.5C 156.023,146.662 155.69,144.828 155.5,143C 157.107,141.951 157.773,140.451 157.5,138.5C 154.139,140.484 152.472,139.484 152.5,135.5C 150.821,135.715 149.821,135.048 149.5,133.5C 156.938,118.416 160.938,102.416 161.5,85.5C 162.328,79.0126 162.828,72.346 163,65.5C 163.333,67.8333 163.667,70.1667 164,72.5C 164.333,72.1667 164.667,71.8333 165,71.5C 165.333,72.8333 165.667,74.1667 166,75.5C 167,72.8333 168,70.1667 169,67.5C 169.34,71.5577 170.007,75.5577 171,79.5C 171.333,77.5 171.667,75.5 172,73.5C 172.667,77.5 173.333,77.5 174,73.5C 174.89,62.0155 175.724,50.6822 176.5,39.5 Z"/></g>
<g><path style="opacity:0.996" fill="#21a7a9" d="M 23.5,94.5 C 25.7079,95.023 27.2079,96.3563 28,98.5C 28.3333,97.5 28.6667,96.5 29,95.5C 29.4978,97.5269 29.3311,99.5269 28.5,101.5C 28.7189,102.938 29.2189,104.271 30,105.5C 29.9957,101.808 30.9957,98.4746 33,95.5C 33.9145,99.1851 34.5811,98.8518 35,94.5C 36.1455,95.6843 37.3121,95.6843 38.5,94.5C 41.0617,120.957 52.0617,142.957 71.5,160.5C 70.6993,162.508 69.366,163.008 67.5,162C 70.1675,164.409 70.0008,165.576 67,165.5C 67.2626,166.951 67.0959,168.284 66.5,169.5C 63.8333,167.167 63.8333,164.833 66.5,162.5C 66.1667,162.167 65.8333,161.833 65.5,161.5C 64.4096,162.727 63.0762,163.56 61.5,164C 63.2705,164.535 63.6039,165.369 62.5,166.5C 61.0186,165.52 59.6853,164.353 58.5,163C 57.8333,162.333 57.1667,162.333 56.5,163C 57.8333,164.333 59.1667,165.667 60.5,167C 59.5842,167.278 58.9175,167.778 58.5,168.5C 38.0472,148.215 26.3805,123.548 23.5,94.5 Z"/></g>
<g><path style="opacity:0.983" fill="#23a6af" d="M 149.5,133.5 C 149.821,135.048 150.821,135.715 152.5,135.5C 152.472,139.484 154.139,140.484 157.5,138.5C 157.773,140.451 157.107,141.951 155.5,143C 155.69,144.828 156.023,146.662 156.5,148.5C 147.568,163.1 135.901,175.1 121.5,184.5C 121.082,183.778 120.416,183.278 119.5,183C 120.9,181.562 122.567,180.729 124.5,180.5C 124.649,179.448 124.483,178.448 124,177.5C 119.993,178.941 115.826,179.774 111.5,180C 110.338,180.827 109.171,181.66 108,182.5C 105.851,180.542 103.518,180.209 101,181.5C 99.2714,181.026 98.1047,180.026 97.5,178.5C 99.9335,179.329 102.267,178.829 104.5,177C 123.586,166.596 138.586,152.096 149.5,133.5 Z"/></g>
<g><path style="opacity:1" fill="#25a6b1" d="M 27.5,132.5 C 40.6977,160.196 60.3644,182.029 86.5,198C 75.0692,198.955 63.7358,198.622 52.5,197C 36.2595,182.694 23.2595,165.861 13.5,146.5C 14.5862,146.38 15.2528,145.713 15.5,144.5C 14.8798,140.152 13.7131,136.152 12,132.5C 12.6667,133.167 13.3333,133.833 14,134.5C 14.2973,131.136 16.1307,129.803 19.5,130.5C 21.4925,131.771 24.1592,132.438 27.5,132.5 Z"/></g>
<g><path style="opacity:0.999" fill="#29a6b5" d="M 71.5,160.5 C 79.3168,167.637 87.9834,173.637 97.5,178.5C 98.1047,180.026 99.2714,181.026 101,181.5C 103.518,180.209 105.851,180.542 108,182.5C 109.171,181.66 110.338,180.827 111.5,180C 115.826,179.774 119.993,178.941 124,177.5C 124.483,178.448 124.649,179.448 124.5,180.5C 122.567,180.729 120.9,181.562 119.5,183C 120.416,183.278 121.082,183.778 121.5,184.5C 116.25,188.565 110.583,192.065 104.5,195C 102.246,196.15 99.9129,196.484 97.5,196C 82.6539,189.3 69.6539,180.133 58.5,168.5C 58.9175,167.778 59.5842,167.278 60.5,167C 59.1667,165.667 57.8333,164.333 56.5,163C 57.1667,162.333 57.8333,162.333 58.5,163C 59.6853,164.353 61.0186,165.52 62.5,166.5C 63.6039,165.369 63.2705,164.535 61.5,164C 63.0762,163.56 64.4096,162.727 65.5,161.5C 65.8333,161.833 66.1667,162.167 66.5,162.5C 63.8333,164.833 63.8333,167.167 66.5,169.5C 67.0959,168.284 67.2626,166.951 67,165.5C 70.0008,165.576 70.1675,164.409 67.5,162C 69.366,163.008 70.6993,162.508 71.5,160.5 Z"/></g>
<g><path style="opacity:0.995" fill="#25a6b5" d="M 177.5,160.5 C 168.836,174.63 158.169,187.13 145.5,198C 134.167,198.667 122.833,198.667 111.5,198C 126.549,189.759 139.549,179.259 150.5,166.5C 150.942,167.231 151.109,168.231 151,169.5C 151.667,168.833 152.333,168.167 153,167.5C 155.041,168.423 157.208,168.756 159.5,168.5C 158.833,166.181 158.666,163.847 159,161.5C 162.513,165.661 165.513,165.327 168,160.5C 168.81,165.046 170.143,165.38 172,161.5C 172.333,162.167 172.667,162.833 173,163.5C 173.589,161.137 175.089,160.137 177.5,160.5 Z"/></g>
</svg>
